0
SECTION
2
HEADER
9
$ACADVER
1
AC1009
9
$INSUNITS
70
6
0
ENDSEC
0
SECTION
2
TABLES
0
TABLE
2
LTYPE
70
1
0
LTYPE
2
CONTINUOUS
70
0
3
Solid line
72
65
73
0
40
0.0000
0
ENDTAB
0
TABLE
2
LAYER
70
4
0
LAYER
2
MUROS
70
0
62
7
6
CONTINUOUS
0
LAYER
2
HUECOS
70
0
62
30
6
CONTINUOUS
0
LAYER
2
COTAS
70
0
62
8
6
CONTINUOUS
0
LAYER
2
TEXTOS
70
0
62
7
6
CONTINUOUS
0
ENDTAB
0
ENDSEC
0
SECTION
2
ENTITIES
0
LINE
8
MUROS
10
0.0000
20
0.0000
30
0.0000
11
0.5900
21
0.0000
31
0.0000
0
LINE
8
HUECOS
10
0.5900
20
0.0000
30
0.0000
11
0.5900
21
0.8200
31
0.0000
0
ARC
8
HUECOS
10
0.5900
20
0.0000
30
0.0000
40
0.8200
50
0.0000
51
90.0000
0
LINE
8
MUROS
10
1.4100
20
0.0000
30
0.0000
11
4.2000
21
0.0000
31
0.0000
0
TEXT
8
COTAS
10
2.1000
20
0.2500
30
0.0000
40
0.0800
1
4.20
50
0.0000
72
1
73
2
11
2.1000
21
0.2500
31
0.0000
0
LINE
8
MUROS
10
4.2000
20
0.0000
30
0.0000
11
4.2000
21
0.9500
31
0.0000
0
LINE
8
HUECOS
10
4.2000
20
0.9500
30
0.0000
11
4.2000
21
2.1500
31
0.0000
0
LINE
8
MUROS
10
4.2000
20
2.1500
30
0.0000
11
4.2000
21
3.1000
31
0.0000
0
TEXT
8
COTAS
10
3.9500
20
1.5500
30
0.0000
40
0.0800
1
3.10
50
-90.0000
72
1
73
2
11
3.9500
21
1.5500
31
0.0000
0
LINE
8
MUROS
10
4.2000
20
3.1000
30
0.0000
11
1.6500
21
3.1000
31
0.0000
0
LINE
8
MUROS
10
0.7500
20
3.1000
30
0.0000
11
0.0000
21
3.1000
31
0.0000
0
TEXT
8
COTAS
10
2.1000
20
2.8500
30
0.0000
40
0.0800
1
4.20
50
0.0000
72
1
73
2
11
2.1000
21
2.8500
31
0.0000
0
LINE
8
MUROS
10
0.0000
20
3.1000
30
0.0000
11
0.0000
21
0.0000
31
0.0000
0
TEXT
8
COTAS
10
0.2500
20
1.5500
30
0.0000
40
0.0800
1
3.10
50
90.0000
72
1
73
2
11
0.2500
21
1.5500
31
0.0000
0
TEXT
8
TEXTOS
10
2.1000
20
1.5500
30
0.0000
40
0.1500
1
SAL\U+00D3N
50
0.0000
72
1
73
2
11
2.1000
21
1.5500
31
0.0000
0
ENDSEC
0
EOF
